<svg xmlns="http://www.w3.org/2000/svg" aria-hidden="true" style="position:absolute;width:0;height:0;overflow:hidden">
  <defs>
    <symbol id="icon-arrow" viewBox="0 0 32 32">
      <path stroke-width=".8" d="M.4 31.6h31.2V.4H.4v31.2z"/>
      <path fill="none" stroke="#fd7765" stroke-linecap="round" stroke-linejoin="round" stroke-width="1.6" d="M8.8 8.533 23.467 23.2m-.001 0h-13.2m13.2 0V10" style="stroke:var(--color1, #fd7765)"/>
    </symbol>
    <symbol id="icon-back-arrow" viewBox="0 0 32 32">
      <path d="m11.734 17.333 3.867 3.867c.244.244.367.556.367.933s-.122.689-.367.933c-.244.244-.556.367-.933.367s-.689-.122-.933-.367l-6.133-6.133c-.267-.267-.4-.578-.4-.933s.133-.667.4-.933l6.133-6.133c.244-.244.556-.367.933-.367s.689.122.933.367c.244.244.367.556.367.933s-.122.689-.367.933l-3.867 3.867h10.933c.378 0 .695.128.951.384s.384.572.383.949c-.001.377-.129.693-.384.949s-.572.384-.949.384H11.735z"/>
    </symbol>
    <symbol id="icon-camera" viewBox="0 0 32 32">
      <path fill="none" stroke="#fd7765" stroke-linecap="round" stroke-linejoin="round" stroke-width="1.422" d="M6.874 9.482h1.304a2.608 2.608 0 0 0 2.608-2.608A1.303 1.303 0 0 1 12.09 5.57h7.822a1.303 1.303 0 0 1 1.304 1.304 2.608 2.608 0 0 0 2.608 2.608h1.304a2.608 2.608 0 0 1 2.608 2.608v11.733a2.608 2.608 0 0 1-2.608 2.608H6.876a2.608 2.608 0 0 1-2.608-2.608V12.09a2.608 2.608 0 0 1 2.608-2.608z" style="stroke:var(--color1, #fd7765)"/>
      <path fill="none" stroke="#fd7765" stroke-linecap="round" stroke-linejoin="round" stroke-width="1.422" d="M12.089 17.304a3.912 3.912 0 1 0 7.824 0 3.912 3.912 0 0 0-7.824 0z" style="stroke:var(--color1, #fd7765)"/>
    </symbol>
    <symbol id="icon-card" viewBox="0 0 32 32">
      <path fill="#fff" stroke="#fff" stroke-width="1.28" d="M5.189 6.201h21.622c.414 0 .765.145 1.084.464h.001c.319.319.462.67.463 1.084v16.503c0 .411-.144.761-.463 1.079s-.67.461-1.085.461H5.189c-.412 0-.761-.144-1.079-.461l-.111-.12a1.428 1.428 0 0 1-.35-.959V7.749c0-.415.144-.766.461-1.085h.001c.317-.319.667-.462 1.077-.463zm-.64 18.69h22.903v-10.25H4.55v10.25zm0-13.098h22.903V7.109H4.55v4.684z" style="fill:var(--color2, #fff);stroke:var(--color2, #fff)"/>
    </symbol>
    <symbol id="icon-close" viewBox="0 0 32 32">
      <path fill="none" stroke="#fd7765" stroke-linecap="round" stroke-linejoin="round" stroke-width="2.667" d="M6.667 6.667 16 16m0 0 9.333-9.333M16 16l-9.333 9.333M16 16l9.333 9.333" style="stroke:var(--color1, #fd7765)"/>
    </symbol>
    <symbol id="icon-help" viewBox="0 0 32 32">
      <path fill="#fd7765" stroke="#fd7765" stroke-width="1.28" d="M16.015 3.641c1.715 0 3.316.324 4.81.97 1.506.651 2.811 1.533 3.921 2.643s1.991 2.416 2.643 3.925c.646 1.497.97 3.099.97 4.813s-.324 3.313-.97 4.804a12.643 12.643 0 0 1-2.645 3.93 12.45 12.45 0 0 1-3.925 2.654c-1.495.648-3.096.973-4.809.973s-3.312-.324-4.804-.967c-1.503-.649-2.814-1.534-3.935-2.655s-2.006-2.432-2.655-3.936c-.644-1.492-.968-3.092-.968-4.807s.324-3.316.968-4.809A12.418 12.418 0 0 1 6.86 7.685l.409-.425a12.693 12.693 0 0 1 3.937-2.645c1.492-.646 3.093-.971 4.809-.971zm-.019.908c-3.158 0-5.869 1.115-8.098 3.33-2.23 2.217-3.35 4.938-3.35 8.125 0 3.159 1.121 5.871 3.348 8.099 2.228 2.228 4.947 3.349 8.12 3.349 3.167 0 5.879-1.119 8.1-3.347s3.335-4.948 3.335-8.12c0-3.165-1.114-5.877-3.33-8.098-2.218-2.222-4.939-3.338-8.125-3.338zm.112 16.992c.186 0 .327.058.457.186.127.125.185.262.185.446s-.058.325-.187.455a.593.593 0 0 1-.449.188.583.583 0 0 1-.352-.103l-.099-.084a.593.593 0 0 1-.186-.451c0-.192.059-.33.183-.454a.59.59 0 0 1 .449-.184zm.088-12.372c.933 0 1.721.306 2.396.924.662.606.984 1.338.984 2.24a3.04 3.04 0 0 1-.419 1.554 4.8 4.8 0 0 1-1.133 1.33 5.859 5.859 0 0 0-1.046 1.066 3.233 3.233 0 0 0-.612 1.412.737.737 0 0 1-.196.365v.001c-.053.052-.112.082-.225.082a.42.42 0 0 1-.273-.086h.001c-.023-.018-.029-.028-.03-.03s-.008-.017-.008-.057c0-.486.14-.916.425-1.309a6.995 6.995 0 0 1 1.176-1.255l.005-.004a8.732 8.732 0 0 0 1.175-1.213c.416-.523.62-1.137.62-1.815 0-.783-.327-1.445-.939-1.941a3.143 3.143 0 0 0-2.025-.711 3.405 3.405 0 0 0-2.764 1.401.568.568 0 0 1-.331.23h-.001c-.083.02-.164.013-.281-.063-.047-.04-.063-.076-.066-.141a.508.508 0 0 1 .094-.325A3.845 3.845 0 0 1 14.231 9.6a4.634 4.634 0 0 1 1.965-.432z" style="fill:var(--color1, #fd7765);stroke:var(--color1, #fd7765)"/>
    </symbol>
    <symbol id="icon-menu" viewBox="0 0 32 32">
      <path fill="#fd7765" d="M5.333 8h21.333v2.667H5.333V8zm0 6.667h21.333v2.667H5.333v-2.667zm0 6.666h21.333V24H5.333v-2.667z" style="fill:var(--color1, #fd7765)"/>
    </symbol>
  </defs>
</svg>
